<svg width="139" height="50" viewBox="0 0 139 50" fill="none" xmlns="http://www.w3.org/2000/svg">
<path fill-rule="evenodd" clip-rule="evenodd" d="M27.7002 16.5549C32.8603 14.0847 37.5465 11.1054 40.2849 5.8498C34.891 7.9993 30.9352 11.8695 27.7002 16.5549ZM37.2846 23.4402C37.2157 23.3586 37.1469 23.2768 37.078 23.195C37.0092 23.1132 36.9403 23.0314 36.8714 22.9498C36.2613 23.3356 35.6316 23.6991 35.0018 24.0627C33.6051 24.869 32.2083 25.6754 31.0252 26.7246C27.8515 29.5387 24.8356 32.5554 21.977 35.6932C20.922 36.8513 19.7694 38.7266 21.2698 40.2175C22.6184 41.5564 24.3586 40.5412 25.6137 39.6175C27.6876 38.0907 29.7917 36.5074 31.5057 34.6049C34.3763 31.42 36.5326 27.7559 37.2846 23.4402ZM28.9713 11.9857C29.6332 11.44 30.2753 10.8988 30.9075 10.366C32.3763 9.12805 33.7915 7.93533 35.2755 6.83617C36.5402 5.8998 37.9662 5.10081 39.4364 4.56041C40.218 4.27303 41.4606 4.36041 42.1196 4.82152C43.3088 5.65283 42.6192 6.98263 41.9275 7.70081C40.1666 9.52978 38.2961 11.2526 36.4264 12.9746L36.4263 12.9747C35.9681 13.3967 35.5099 13.8187 35.0534 14.2422C34.7433 14.5299 34.3914 14.7713 33.9566 15.0696C33.7295 15.2254 33.4798 15.3968 33.2016 15.5983C35.9194 16.2554 38.1461 17.0927 38.9112 19.8412C38.9604 20.02 40.0471 20.0735 40.5784 19.9235C42.0039 19.5218 43.421 19.0907 44.8382 18.6595C46.3823 18.1897 47.9265 17.7198 49.4813 17.2882C51.7241 16.6655 52.7043 17.4074 53.1074 19.623C52.6741 19.681 52.2032 19.6931 51.7322 19.7052C50.6879 19.732 49.6436 19.7589 49.0103 20.2852C47.611 21.4485 46.5311 23.0181 45.4661 24.566C45.2546 24.8735 45.0436 25.1802 44.8308 25.4826C44.6295 25.7687 44.6683 26.2252 44.7071 26.6818C44.725 26.892 44.7429 27.1022 44.7373 27.2958C44.9286 27.2298 45.1402 27.1816 45.3517 27.1335C45.8123 27.0286 46.2728 26.9238 46.5242 26.6352C47.618 25.3783 48.6405 24.0586 49.713 22.6745C50.1187 22.1509 50.5315 21.6182 50.9581 21.0761C53.1375 22.1458 55.1531 21.3463 56.7129 19.016L56.737 18.9799C57.0105 18.5705 57.3914 18.0002 57.7458 17.9811C58.2795 17.9525 58.8221 18.0914 59.3648 18.2303C59.5881 18.2875 59.8115 18.3447 60.0343 18.3902C59.9659 18.561 59.9111 18.7452 59.8563 18.9293C59.7375 19.3283 59.6187 19.7272 59.3618 19.9902C59.1845 20.1718 59.0058 20.3523 58.8269 20.5329L58.8268 20.533C57.1871 22.1887 55.5344 23.8574 54.8184 26.5841C55.0733 26.4748 55.3088 26.3924 55.5221 26.3177C55.9265 26.1761 56.2514 26.0623 56.4791 25.8458C58.7124 23.7261 60.9024 21.5594 63.0889 19.3907C63.2287 19.2523 63.3467 19.0586 63.4613 18.8704C63.636 18.5837 63.8029 18.3099 64.0269 18.2644C64.7285 18.122 65.6584 18.0675 66.2043 18.4235C67.0792 18.9945 66.5921 19.3949 66.1085 19.7923C65.9881 19.8913 65.8679 19.99 65.769 20.0912C64.0098 21.8932 62.5893 23.8993 62.2585 26.5811C67.3589 23.9579 71.5771 20.5225 73.361 14.5579L57.1356 13.5827L54.4198 13.4195C54.4263 13.2301 54.4329 13.0412 54.4389 12.8523C54.7919 12.8523 55.1449 12.8529 55.4979 12.8535C56.263 12.8548 57.0281 12.8562 57.793 12.8513C59.2487 12.8425 60.7044 12.8303 62.1601 12.818C65.8912 12.7866 69.6222 12.7552 73.3529 12.7821C74.601 12.7912 75.0896 12.1235 75.636 11.2124C77.5334 8.04627 79.453 4.89122 81.4435 1.78313C82.8102 -0.350199 83.0525 -0.338077 85.1877 1.12808L82.3482 5.04664L82.3205 5.08496C80.6669 7.36693 78.9596 9.72295 77.1107 12.2751C79.7551 12.1109 81.725 12.0685 82.1186 14.9533C81.6848 14.9097 81.2573 14.8578 80.8344 14.8064C79.8379 14.6855 78.8663 14.5675 77.8948 14.5675C77.162 14.5675 76.031 14.7594 75.7596 15.2468C74.2584 17.9439 72.8557 20.6964 71.3471 23.6567C70.8624 24.6077 70.3668 25.5801 69.8535 26.5791C70.232 26.5321 70.5206 26.5144 70.7426 26.5007C71.0887 26.4795 71.2728 26.4681 71.3831 26.3715C72.1003 25.7434 72.8294 25.1259 73.5586 24.5082L73.5592 24.5077L73.5593 24.5076C75.5806 22.7955 77.6032 21.0824 79.3771 19.1407C80.7765 17.6089 81.9205 17.2518 83.917 18.1685C81.1726 20.4958 79.0419 23.123 78.1733 26.7412C81.2103 25.9235 83.9145 24.5892 86.1774 22.2912C87.6939 20.7513 89.2702 19.2049 91.0521 18.0119C92.8732 16.7927 93.7081 17.2559 94.9953 19.6745C91.0224 19.9347 88.6756 22.2917 86.9148 25.3771C86.9927 25.4783 87.0704 25.5796 87.148 25.6809C87.2257 25.7821 87.3034 25.8834 87.3813 25.9846C87.6201 25.7913 87.8583 25.5973 88.0965 25.4032L88.0989 25.4013C88.6616 24.9429 89.2242 24.4846 89.795 24.0362C90.0338 23.8485 90.2674 23.6463 90.5012 23.4439C91.1037 22.9225 91.708 22.3995 92.4072 22.119C92.9128 21.916 93.5346 22.0043 94.1562 22.0925C94.4332 22.1318 94.7101 22.1711 94.9767 22.1847C94.9593 22.4253 94.9649 22.6781 94.9704 22.9309C94.9825 23.4794 94.9946 24.0277 94.7717 24.4508C93.0898 27.6412 91.3235 30.7887 89.5044 33.9028C86.5067 39.0352 83.7492 44.2756 81.8949 49.969C81.9018 45.252 83.876 41.137 85.835 37.0535L85.9548 36.8038C87.3254 33.9459 88.8023 31.1397 90.2793 28.3333C90.9283 27.1002 91.5772 25.8671 92.2172 24.6296L92.0159 24.4585C91.8803 24.3433 91.7447 24.2281 91.6095 24.1129C91.3574 24.2895 91.1023 24.4622 90.8473 24.6349L90.8472 24.6349C90.2631 25.0304 89.679 25.4258 89.1315 25.867C88.8021 26.1324 88.5008 26.4345 88.1997 26.7364C87.8466 27.0905 87.4938 27.4443 87.0963 27.7382C86.5246 28.1614 85.9005 28.5133 85.2764 28.8653L85.2763 28.8654C85.006 29.0178 84.7356 29.1703 84.4694 29.3286C84.2948 28.7207 84.1198 28.1132 83.9319 27.461L83.9271 27.4444L83.5536 26.1478C83.2183 26.3563 82.8758 26.5864 82.5241 26.8227L82.5239 26.8228C81.6764 27.3922 80.7763 27.9969 79.7984 28.4195C79.0683 28.735 78.2438 28.8289 77.4194 28.9227L77.4193 28.9227C77.0534 28.9643 76.6876 29.006 76.3301 29.067C76.3238 28.73 76.3138 28.393 76.3038 28.0558V28.0557V28.0555C76.2789 27.2143 76.2539 26.3729 76.2859 25.5336C76.2927 25.3541 76.3341 25.1758 76.3787 24.9838C76.4525 24.666 76.5352 24.3103 76.4844 23.8478C76.1855 24.116 75.8868 24.3843 75.588 24.6525C74.6524 25.4928 73.7169 26.3329 72.7774 27.169C72.7337 27.2079 72.6902 27.2478 72.6464 27.2877C72.4399 27.4766 72.2293 27.6691 71.9862 27.7867C71.6745 27.9376 71.3268 28.1446 70.9758 28.3536L70.9757 28.3536C70.1225 28.8616 69.2499 29.3812 68.8261 29.1346C67.5124 28.3719 67.9874 27.0115 68.4204 25.7711C68.4788 25.6038 68.5365 25.4387 68.5889 25.2776C68.6523 25.0831 68.6745 24.8749 68.702 24.6159C68.7164 24.4808 68.7323 24.3319 68.7562 24.1639C68.2026 24.5918 67.6693 25.0162 67.1464 25.4323L67.1464 25.4323C65.9004 26.4238 64.7139 27.3679 63.4538 28.1993C62.8899 28.571 62.1875 28.731 61.4851 28.891C61.1664 28.9636 60.8478 29.0362 60.542 29.1286C60.4928 28.8524 60.4425 28.5765 60.3922 28.3006C60.2688 27.6238 60.1455 26.947 60.0384 26.2675C60.0081 26.0724 60.0141 25.8715 60.0221 25.6051C60.0264 25.4605 60.0313 25.2966 60.0313 25.1038C59.5684 25.4873 59.1257 25.8653 58.6937 26.2342C57.6497 27.1256 56.6678 27.9639 55.6141 28.6983C55.0235 29.1099 53.7472 29.4417 53.4336 29.1357C52.9078 28.6235 52.6057 27.516 52.745 26.7584C52.932 25.7382 53.3031 24.7522 53.6956 23.7094L53.6956 23.7093C53.8633 23.2638 54.0348 22.808 54.1976 22.3347C52.3258 22.1245 51.0033 22.2887 50.1724 24.4402C49.3587 26.5468 47.8356 28.4109 45.5275 29.1104C44.7042 29.3604 43.4511 29.2165 42.8117 28.715C42.2945 28.3094 42.017 26.9261 42.3035 26.274C43.0695 24.5309 43.9805 22.8517 44.9359 21.0906L44.9362 21.0901C45.3035 20.4129 45.6775 19.7236 46.0522 19.0139C45.4979 19.2341 44.9452 19.4442 44.3966 19.6527L44.3965 19.6527C42.9868 20.1886 41.6037 20.7143 40.2874 21.3745C39.7335 21.6528 39.3279 22.6124 39.2062 23.3205C37.8013 31.4963 33.6821 37.8468 26.5818 42.0937C25.1286 42.9629 23.3191 43.4766 21.6262 43.6352C19.0074 43.8811 17.6322 41.9513 18.2906 39.4038C19.2542 35.674 21.4648 32.6574 24.3179 30.3064C26.6561 28.38 29.1602 26.6583 31.6648 24.9362C32.8801 24.1007 34.0955 23.265 35.2921 22.4059C35.5037 22.254 35.7712 22.1454 36.0404 22.0361C36.7744 21.7382 37.5204 21.4354 37.175 20.2362C36.7613 18.7988 35.7616 17.8382 34.2738 17.8912C32.5411 17.9533 30.7633 18.1341 29.1081 18.619C26.8356 19.2841 24.9854 20.5473 23.7071 22.7816C21.3196 26.9543 18.2786 30.6564 14.5897 33.767C13.7663 34.4614 12.853 35.1382 11.8648 35.5155C11.208 35.7657 10.349 35.4812 9.62492 35.2413L9.62487 35.2413L9.60944 35.2362C17.984 29.3079 23.2462 21.366 26.4908 11.9867C27.1055 10.2099 27.3161 8.17303 27.2025 6.28718C26.9985 2.90788 24.9763 1.38313 21.6056 1.70839C17.8865 2.06748 14.8254 3.96344 11.8824 6.08061C8.43778 8.55889 5.55611 11.5776 3.43897 15.2821C1.3922 18.8629 0.701059 22.6291 2.19191 26.7109C0.512567 25.4614 -0.0312958 24.2756 0.00137617 21.8104C0.0415878 18.7937 0.956905 15.9942 2.49349 13.4503C5.79286 7.98617 10.2317 3.74576 16.2569 1.46142C17.9493 0.820004 19.8212 0.43162 21.6267 0.363438C26.156 0.193236 29.2433 3.34071 29.2181 7.87455C29.2131 8.76125 29.1447 9.64726 29.0721 10.589V10.589C29.0374 11.0397 29.0016 11.5032 28.9713 11.9857ZM115.581 23.8289C115.624 23.8877 115.667 23.9464 115.711 24.0052L115.819 24.1518L116.865 23.4008C118.047 22.5531 119.228 21.7056 120.41 20.8583C120.326 20.7444 120.243 20.631 120.159 20.5175L120.158 20.516L120.034 20.3468C117.938 20.6773 116.515 21.9208 115.454 23.6558C115.496 23.7136 115.538 23.7713 115.581 23.8289ZM111.869 26.3543C111.379 26.7342 110.919 27.1127 110.474 27.4792C109.464 28.3106 108.528 29.0804 107.487 29.6658C106.58 30.1763 105.172 30.4848 104.294 30.1353C103.9 29.9795 103.774 29.1587 103.649 28.3448L103.649 28.3445C103.595 27.9937 103.542 27.6442 103.467 27.3498C103.427 27.1912 103.409 27.027 103.39 26.8527C103.382 26.7699 103.373 26.6848 103.361 26.5968C102.897 26.9236 102.442 27.2565 101.99 27.5876L101.99 27.5879C100.876 28.4033 99.7771 29.2074 98.6021 29.8798C97.9157 30.2723 96.6317 30.4738 96.1178 30.0973C95.5994 29.7183 95.3132 28.3493 95.5959 27.6993C96.7535 25.0373 98.0316 22.4038 99.5352 19.9193C100.466 18.3825 101.59 19.1431 102.778 19.9471C102.874 20.0118 102.97 20.0768 103.066 20.1408C100.481 22.2873 98.9824 24.8798 97.9967 27.8748C101.215 26.7023 103.766 24.7208 105.867 22.1423C106.238 21.6869 106.577 21.2063 106.917 20.7255L106.917 20.7254C107.107 20.4556 107.298 20.1858 107.494 19.9203C108.26 18.8828 109.151 18.8643 110.064 19.6933C110.951 20.5005 110.395 20.8745 109.854 21.2375C109.703 21.3391 109.553 21.4398 109.437 21.5488C107.376 23.4763 105.951 25.7373 105.256 29.1363C108.795 27.6563 111.324 25.7963 113.009 22.9748C114.319 20.7798 115.781 18.7933 118.114 17.5973C119.963 16.6498 121.72 17.0968 122.222 18.9378C122.398 19.5836 122.111 20.3529 121.828 21.1097C121.702 21.4476 121.576 21.783 121.494 22.1038C122.457 21.8711 123.443 21.6317 124.447 21.3882C127.16 20.7299 129.997 20.0413 132.839 19.3708C132.951 19.3445 133.063 19.3179 133.175 19.2912C134.293 19.0261 135.422 18.7582 136.558 18.6873C137.311 18.6408 138.092 19.0293 138.812 19.5298C130.776 20.1033 123.239 22.2163 115.932 25.2208C113.676 26.1483 113.413 28.3413 115.35 29.8338C115.922 30.2753 116.679 30.5833 117.395 30.7133C118.206 30.8603 119.078 30.8243 119.904 30.7183C124.217 30.1638 128.829 26.9433 131.162 23.2833C131.104 23.5338 131.061 23.7919 131.019 24.05C130.927 24.6049 130.835 25.1595 130.59 25.6373C128.245 30.2158 121.241 33.4268 116.168 32.3218C113.442 31.7273 112.392 30.3303 111.869 26.3543ZM85.9496 11.5212C85.6347 12.2155 85.3198 12.9098 85 13.6012C85.1817 13.7237 85.3634 13.8463 85.5457 13.9689C86.0238 13.4534 86.5008 12.9365 86.9779 12.4196C88.1576 11.1412 89.3375 9.86277 90.5342 8.60422C91.2837 7.81648 91.0662 7.18521 90.326 6.68568C90.2334 6.62311 90.1376 6.55114 90.0394 6.47747C89.4592 6.04206 88.7997 5.54707 88.2755 6.58136C87.4556 8.2007 86.7026 9.86093 85.9496 11.5212Z" fill="black"/>
</svg>
